<?xml version="1.0" encoding="utf-8"?>
<!-- Generator: Adobe Illustrator 16.0.0, SVG Export Plug-In . SVG Version: 6.00 Build 0)  -->
<!DOCTYPE svg PUBLIC "-//W3C//DTD SVG 1.1//EN" "http://www.w3.org/Graphics/SVG/1.1/DTD/svg11.dtd">
<svg version="1.1" id="Layer_1" xmlns="http://www.w3.org/2000/svg" xmlns:xlink="http://www.w3.org/1999/xlink" x="0px" y="0px"
	 width="170px" height="48px" viewBox="0 0 170 48" enable-background="new 0 0 170 48" xml:space="preserve">
<g>
	<g>
		<path fill="#09509E" d="M8.454,28.201c-4.944,0-8.088-2.765-8.191-7.212l-0.004-0.046h1.574l0.001,0.041
			c0.221,3.542,2.825,5.835,6.62,5.835c1.486,0,6.341-0.305,6.341-4.223c0-3.2-3.074-3.817-6.327-4.476l-0.534-0.109
			c-3.814-0.773-6.971-1.736-6.971-5.765c0-4.838,5.613-5.215,7.334-5.215c4.829,0,7.489,2.301,7.489,6.47v0.049h-1.578v-0.049
			c-0.036-3.277-2.135-5.087-5.912-5.087c-2.784,0-5.753,1.008-5.753,3.833c0,3.035,3.164,3.677,6.224,4.296l0.437,0.088
			c4.062,0.797,7.17,1.744,7.17,5.964C16.374,27.797,10.309,28.201,8.454,28.201"/>
		<path fill="#09509E" d="M26.604,28.203c-5.429,0-8.935-4.021-8.935-10.235c0-5.443,2.763-10.939,8.935-10.939
			c2.615,0,4.733,0.837,6.301,2.478c1.834,1.928,2.76,4.883,2.597,8.312v0.039h-16.26c-0.039,2.824,0.852,5.369,2.446,6.984
			c1.268,1.295,2.968,1.979,4.917,1.979c3.779,0,6.459-2.229,7.166-5.958l0.012-0.035h1.573l-0.009,0.046
			C34.56,25.597,31.454,28.203,26.604,28.203 M33.926,16.475c-0.092-4.016-2.633-8.06-7.322-8.06c-4.397,0-7.025,4.044-7.356,8.06
			H33.926z"/>
		<path fill="#09509E" d="M55.532,27.729V7.502h1.574v4.47h0.044c0.802-2.623,3.964-4.594,7.372-4.594c0.127,0,0.257,0,0.382,0.008
			l0.042,0.002v1.579l-0.047-0.008c-0.253-0.029-0.515-0.045-0.784-0.045c-1.026,0-3.01,0.257-4.743,1.994
			c-1.533,1.531-2.266,2.788-2.266,5.77v11.052H55.532z"/>
		<path fill="#09509E" d="M72.728,28.201c-4.939,0-8.08-2.765-8.195-7.212v-0.046h1.58l0.003,0.041
			c0.222,3.542,2.821,5.835,6.612,5.835c1.491,0,6.35-0.305,6.35-4.223c0-3.2-3.078-3.817-6.325-4.476l-0.538-0.109
			c-3.816-0.773-6.974-1.736-6.974-5.765c0-4.838,5.614-5.215,7.336-5.215c4.828,0,7.488,2.301,7.488,6.47v0.049h-1.577v-0.049
			c-0.037-3.277-2.136-5.087-5.911-5.087c-2.785,0-5.758,1.008-5.758,3.833c0,3.035,3.164,3.677,6.229,4.296l0.436,0.088
			c4.061,0.797,7.169,1.744,7.169,5.964C80.653,27.797,74.588,28.201,72.728,28.201"/>
		<path fill="#09509E" d="M43.542,28.199c-4.438,0-6.785-1.977-6.785-5.726c0-3.685,2.434-5.642,7.447-5.998
			c6.669-0.509,6.896-0.886,6.896-4.149c0-0.831-0.946-3.911-5.563-3.911c-3.715,0-5.954,1.938-6.145,5.323l-0.004,0.043h-1.575
			l0.003-0.047C38.012,9.35,40.68,7.03,45.538,7.03c3.239,0,7.102,0.917,7.102,5.297v15.402h-1.583v-3.996h-0.003
			C50.226,25.803,47.771,28.199,43.542,28.199 M51.057,16.355c-0.946,0.961-3.004,1.13-5.177,1.309
			c-0.677,0.053-1.38,0.109-2.06,0.191c-3.843,0.473-5.486,1.852-5.486,4.619c0,2.642,2.058,4.347,5.247,4.347
			c7.273,0,7.476-6.745,7.476-6.814V16.355z"/>
	</g>
	<g>
		<path fill="#C62424" d="M84.383,19.765c0-5.22,3.472-11.208,9.536-11.053c4.098,0.118,6.061,2.666,6.061,6.566
			c0,5.175-3.083,11.664-9.15,11.664C86.308,26.942,84.383,23.737,84.383,19.765 M82.915,19.877c0,5.015,2.587,8.342,7.952,8.342
			c6.993,0,10.582-6.915,10.582-12.977c0-4.87-2.973-7.801-7.834-7.801C86.893,7.44,82.915,13.85,82.915,19.877"/>
		<path fill="#C62424" d="M119.253,7.9l-1.97,9.348c-0.926,4.443-3.861,9.695-8.65,9.695c-2.976,0-4.675-1.738-4.675-4.25
			c0-1.154,0.426-3.243,0.582-3.978L106.975,7.9h-1.472l-2.429,10.854c-0.195,0.891-0.584,3.012-0.584,3.979
			c0,3.438,2.626,5.485,5.64,5.485c3.979,0,6.024-1.739,7.766-4.713l0.078,0.076l-0.932,4.172h1.467L120.725,7.9H119.253z"/>
		<path fill="#C62424" d="M127.556,1.686L126.203,7.9h-3.663l-0.309,1.274h3.743l-3.017,13.712c-0.111,0.58-0.304,1.39-0.304,1.893
			c0,1.896,0.928,2.975,3.244,2.975c0.928,0,1.894-0.116,2.395-0.116l0.27-1.274c-0.733,0.08-1.467,0.116-2.197,0.116
			c-1.588,0-2.244-0.541-2.244-1.659c0-0.35,0.232-1.548,0.314-1.82l3.009-13.826h4.171l0.308-1.274h-4.251l1.353-6.214H127.556z"/>
		<polygon fill="#C62424" points="136.354,0.178 130.601,27.754 132.069,27.754 137.823,0.178 		"/>
		<path fill="#C62424" d="M146.902,8.712c4.174,0,6.062,2.975,6.062,6.371c0,0.507-0.077,1.005-0.194,1.664H138.52
			C139.406,12.533,142.226,8.712,146.902,8.712 M136.63,20.378c0,4.248,2.588,7.841,7.607,7.841c4.75,0,7.957-2.935,9.114-7.07
			h-1.464c-0.699,3.052-3.789,5.794-7.495,5.794c-4.018,0-6.299-3.128-6.299-6.757c0-0.736,0.078-1.509,0.193-2.167h15.876
			c0.155-0.965,0.268-1.931,0.268-2.936c0-4.361-2.586-7.643-7.261-7.643C140.646,7.44,136.63,13.001,136.63,20.378"/>
		<path fill="#C62424" d="M160.983,1.686L159.63,7.9h-3.667l-0.308,1.274h3.74l-3.011,13.712c-0.114,0.58-0.31,1.39-0.31,1.893
			c0,1.896,0.926,2.975,3.247,2.975c0.925,0,1.89-0.116,2.393-0.116l0.272-1.274c-0.736,0.08-1.473,0.116-2.201,0.116
			c-1.59,0-2.248-0.541-2.248-1.659c0-0.35,0.238-1.548,0.316-1.82l3.012-13.826h4.172l0.307-1.274h-4.248l1.351-6.214H160.983z"/>
	</g>
	<g>
		<defs>
			<path id="SVGID_1_" d="M161.831,39.91c0-0.196,0.154-0.348,0.351-0.348c0.188,0,0.345,0.151,0.345,0.348
				c0,0.19-0.157,0.342-0.345,0.342C161.985,40.252,161.831,40.101,161.831,39.91 M161.286,37.778c0-0.193,0.159-0.347,0.348-0.347
				c0.192,0,0.352,0.153,0.352,0.347s-0.159,0.347-0.352,0.347C161.445,38.125,161.286,37.972,161.286,37.778 M160.775,35.891
				c0-0.196,0.162-0.347,0.352-0.347c0.195,0,0.347,0.15,0.347,0.347c0,0.194-0.151,0.349-0.347,0.349
				C160.938,36.239,160.775,36.085,160.775,35.891 M164.955,35.604c0-0.65,0.528-1.168,1.173-1.168c0.646,0,1.166,0.518,1.166,1.168
				c0,0.646-0.521,1.165-1.166,1.165C165.483,36.77,164.955,36.25,164.955,35.604 M160.229,33.771c0-0.186,0.151-0.343,0.347-0.343
				c0.191,0,0.349,0.157,0.349,0.343c0,0.196-0.157,0.349-0.349,0.349C160.38,34.119,160.229,33.967,160.229,33.771 M162.783,31.466
				c-2.104,0.513-26.56,6.737-26.56,6.737l2.436,9.619c0,0,24.639-6.16,26.887-6.915c2.242-0.745,4.999-2.431,3.977-6.26
				c-0.736-2.731-2.771-3.449-4.643-3.449C164.123,31.198,163.39,31.314,162.783,31.466"/>
		</defs>
		<clipPath id="SVGID_2_">
			<use xlink:href="#SVGID_1_"  overflow="visible"/>
		</clipPath>
		
			<linearGradient id="SVGID_3_" gradientUnits="userSpaceOnUse" x1="30.3184" y1="46.9414" x2="32.8959" y2="46.9414" gradientTransform="matrix(-0.7978 -3.1189 -3.1189 0.7978 324.7803 99.741)">
			<stop  offset="0" style="stop-color:#EA2227"/>
			<stop  offset="1" style="stop-color:#BB2427"/>
		</linearGradient>
		<polygon clip-path="url(#SVGID_2_)" fill="url(#SVGID_3_)" points="138.331,56.062 132.233,32.221 168.438,22.959 174.538,46.802 
					"/>
	</g>
	<path fill="#D8DADB" d="M159.53,25.244c0.964-0.47,2.361-0.176,4.29,0.893c1.916,1.061,4.035,2.858,4.456,4.484
		c0.149,0.588,0.076,1.12-0.216,1.596c0.07,0.06,0.138,0.119,0.206,0.185c0.356-0.559,0.446-1.209,0.278-1.849
		c-0.461-1.816-2.76-3.648-4.591-4.665c-2.008-1.119-3.498-1.411-4.545-0.896c-0.346,0.166-0.568,0.438-0.652,0.784
		c-0.158,0.644,0.166,1.526,0.967,2.618c1.361,1.842,6.351,6.336,6.561,6.527l0.187-0.213c-0.05-0.045-5.174-4.663-6.518-6.485
		c-0.938-1.27-1.02-1.997-0.923-2.384C159.094,25.573,159.261,25.375,159.53,25.244"/>
</g>
</svg>
